<svg width="1034" height="957" viewBox="0 0 1034 957" fill="none" xmlns="http://www.w3.org/2000/svg">
<g filter="url(#filter0_d_74_11)">
<path d="M129.325 721.379C64.7603 803.556 44.325 858.485 4.77783 945.127H134.818C198.615 940.616 258.457 917.464 321.204 784.842C383.95 702.666 615.127 684.669 721.325 648.966C871.372 598.521 972.312 504.954 1000.5 445.559C1028.69 386.165 1037.79 309.684 1018.69 247.848C1005.96 321.888 968.674 391.86 909.566 424.405C928.662 374.774 930.481 343.042 909.566 294.225C891.378 347.11 878.647 432.541 681.312 510.65C602.949 541.667 422.928 558.592 345.755 593.64C264.246 618.747 196.669 654.098 129.325 721.379Z" fill="white"/>
<path d="M874.099 626.998C800.315 665.166 756.687 683.3 672.219 705.92C734.984 849.055 743.15 875.969 797.712 913.395C852.274 950.822 904.205 952.921 1021.42 944.313L874.099 626.998Z" fill="white"/>
<path d="M418.505 529.363C296.408 556.547 236.902 586.859 138.419 653.848L373.036 138.008C398.846 103.955 413.367 88.0789 439.42 67.2224C537.51 6.91387 606.858 0.904634 735.875 0.504883C675.641 43.1418 657.677 74.5114 662.216 147.772C700.453 251.653 728.58 309.912 780.434 413.828C705.729 456.748 663.731 478.684 588.557 491.936L513.079 293.411L418.505 529.363Z" fill="white"/>
<path d="M129.325 721.379C64.7603 803.556 44.325 858.485 4.77783 945.127H134.818C198.615 940.616 258.457 917.464 321.204 784.842C383.95 702.666 615.127 684.669 721.325 648.966C871.372 598.521 972.312 504.954 1000.5 445.559C1028.69 386.165 1037.79 309.684 1018.69 247.848C1005.96 321.888 968.674 391.86 909.566 424.405C928.662 374.774 930.481 343.042 909.566 294.225C891.378 347.11 878.647 432.541 681.312 510.65C602.949 541.667 422.928 558.592 345.755 593.64C264.246 618.747 196.669 654.098 129.325 721.379Z" stroke="white"/>
<path d="M874.099 626.998C800.315 665.166 756.687 683.3 672.219 705.92C734.984 849.055 743.15 875.969 797.712 913.395C852.274 950.822 904.205 952.921 1021.42 944.313L874.099 626.998Z" stroke="white"/>
<path d="M418.505 529.363C296.408 556.547 236.902 586.859 138.419 653.848L373.036 138.008C398.846 103.955 413.367 88.0789 439.42 67.2224C537.51 6.91387 606.858 0.904634 735.875 0.504883C675.641 43.1418 657.677 74.5114 662.216 147.772C700.453 251.653 728.58 309.912 780.434 413.828C705.729 456.748 663.731 478.684 588.557 491.936L513.079 293.411L418.505 529.363Z" stroke="white"/>
</g>
<defs>
<filter id="filter0_d_74_11" x="0" y="0" width="1033.28" height="957.005" filterUnits="userSpaceOnUse" color-interpolation-filters="sRGB">
<feFlood flood-opacity="0" result="BackgroundImageFix"/>
<feColorMatrix in="SourceAlpha" type="matrix" values="0 0 0 0 0 0 0 0 0 0 0 0 0 0 0 0 0 0 127 0" result="hardAlpha"/>
<feOffset dy="4"/>
<feGaussianBlur stdDeviation="2"/>
<feComposite in2="hardAlpha" operator="out"/>
<feColorMatrix type="matrix" values="0 0 0 0 0 0 0 0 0 0 0 0 0 0 0 0 0 0 0.25 0"/>
<feBlend mode="normal" in2="BackgroundImageFix" result="effect1_dropShadow_74_11"/>
<feBlend mode="normal" in="SourceGraphic" in2="effect1_dropShadow_74_11" result="shape"/>
</filter>
</defs>
</svg>
